<mxfile host="65bd71144e">
    <diagram name="第 1 页" id="RhUWfi05FmRQBHy3pZ3p">
        <mxGraphModel dx="1002" dy="563" grid="1" gridSize="10" guides="1" tooltips="1" connect="1" arrows="1" fold="1" page="1" pageScale="1" pageWidth="827" pageHeight="1169" math="0" shadow="0">
            <root>
                <mxCell id="0"/>
                <mxCell id="1" parent="0"/>
                <mxCell id="RASjmOdxJzoFBqnvzYFF-1" value="Trials of model" style="rounded=1;whiteSpace=wrap;html=1;fillColor=#dae8fc;strokeColor=#6c8ebf;" parent="1" vertex="1">
                    <mxGeometry x="20" y="412.5" width="110" height="30" as="geometry"/>
                </mxCell>
                <mxCell id="RASjmOdxJzoFBqnvzYFF-9" style="edgeStyle=none;rounded=0;orthogonalLoop=1;jettySize=auto;html=1;exitX=1;exitY=0;exitDx=0;exitDy=0;exitPerimeter=0;" parent="1" source="RASjmOdxJzoFBqnvzYFF-7" edge="1">
                    <mxGeometry relative="1" as="geometry">
                        <mxPoint x="260" y="375" as="targetPoint"/>
                    </mxGeometry>
                </mxCell>
                <mxCell id="RASjmOdxJzoFBqnvzYFF-10" style="edgeStyle=none;rounded=0;orthogonalLoop=1;jettySize=auto;html=1;exitX=1;exitY=1;exitDx=0;exitDy=0;exitPerimeter=0;" parent="1" source="RASjmOdxJzoFBqnvzYFF-7" edge="1">
                    <mxGeometry relative="1" as="geometry">
                        <mxPoint x="260" y="480" as="targetPoint"/>
                    </mxGeometry>
                </mxCell>
                <mxCell id="RASjmOdxJzoFBqnvzYFF-7" value="" style="strokeWidth=2;html=1;shape=mxgraph.flowchart.annotation_2;align=left;labelPosition=right;pointerEvents=1;" parent="1" vertex="1">
                    <mxGeometry x="130" y="375" width="50" height="105" as="geometry"/>
                </mxCell>
                <mxCell id="RASjmOdxJzoFBqnvzYFF-8" value="successful" style="rounded=1;whiteSpace=wrap;html=1;fillColor=#f8cecc;strokeColor=#b85450;" parent="1" vertex="1">
                    <mxGeometry x="170" y="342.5" width="70" height="20" as="geometry"/>
                </mxCell>
                <mxCell id="RASjmOdxJzoFBqnvzYFF-11" value="unsuccessful" style="rounded=1;whiteSpace=wrap;html=1;fillColor=#f8cecc;strokeColor=#b85450;" parent="1" vertex="1">
                    <mxGeometry x="170" y="490" width="80" height="20" as="geometry"/>
                </mxCell>
                <mxCell id="RASjmOdxJzoFBqnvzYFF-15" style="edgeStyle=none;rounded=0;orthogonalLoop=1;jettySize=auto;html=1;" parent="1" source="RASjmOdxJzoFBqnvzYFF-12" edge="1">
                    <mxGeometry relative="1" as="geometry">
                        <mxPoint x="470" y="378" as="targetPoint"/>
                    </mxGeometry>
                </mxCell>
                <mxCell id="RASjmOdxJzoFBqnvzYFF-12" value="continue" style="rounded=1;whiteSpace=wrap;html=1;fillColor=#dae8fc;strokeColor=#6c8ebf;" parent="1" vertex="1">
                    <mxGeometry x="280" y="362.5" width="120" height="30" as="geometry"/>
                </mxCell>
                <mxCell id="RASjmOdxJzoFBqnvzYFF-14" style="edgeStyle=none;rounded=0;orthogonalLoop=1;jettySize=auto;html=1;entryX=0.5;entryY=1;entryDx=0;entryDy=0;" parent="1" source="RASjmOdxJzoFBqnvzYFF-13" target="RASjmOdxJzoFBqnvzYFF-1" edge="1">
                    <mxGeometry relative="1" as="geometry">
                        <Array as="points">
                            <mxPoint x="340" y="520"/>
                            <mxPoint x="75" y="520"/>
                        </Array>
                    </mxGeometry>
                </mxCell>
                <mxCell id="RASjmOdxJzoFBqnvzYFF-13" value="other model" style="rounded=1;whiteSpace=wrap;html=1;fillColor=#dae8fc;strokeColor=#6c8ebf;" parent="1" vertex="1">
                    <mxGeometry x="280" y="460" width="120" height="30" as="geometry"/>
                </mxCell>
                <mxCell id="RASjmOdxJzoFBqnvzYFF-16" value="model evaluation" style="rounded=1;whiteSpace=wrap;html=1;fillColor=#dae8fc;strokeColor=#6c8ebf;" parent="1" vertex="1">
                    <mxGeometry x="480" y="360" width="120" height="35" as="geometry"/>
                </mxCell>
                <mxCell id="RASjmOdxJzoFBqnvzYFF-17" value="" style="shape=curlyBracket;whiteSpace=wrap;html=1;rounded=1;labelPosition=left;verticalLabelPosition=middle;align=right;verticalAlign=middle;size=0.5;" parent="1" vertex="1">
                    <mxGeometry x="610" y="317.5" width="20" height="120" as="geometry"/>
                </mxCell>
                <mxCell id="RASjmOdxJzoFBqnvzYFF-21" value="strengths" style="rounded=1;whiteSpace=wrap;html=1;fillColor=#ffe6cc;strokeColor=#d79b00;" parent="1" vertex="1">
                    <mxGeometry x="640" y="310" width="120" height="30" as="geometry"/>
                </mxCell>
                <mxCell id="RASjmOdxJzoFBqnvzYFF-22" value="weaknesses" style="rounded=1;whiteSpace=wrap;html=1;fillColor=#ffe6cc;strokeColor=#d79b00;" parent="1" vertex="1">
                    <mxGeometry x="640" y="362.5" width="120" height="30" as="geometry"/>
                </mxCell>
                <mxCell id="RASjmOdxJzoFBqnvzYFF-23" value="further analysis" style="rounded=1;whiteSpace=wrap;html=1;fillColor=#ffe6cc;strokeColor=#d79b00;" parent="1" vertex="1">
                    <mxGeometry x="640" y="405" width="120" height="32.5" as="geometry"/>
                </mxCell>
                <mxCell id="RASjmOdxJzoFBqnvzYFF-24" value="Model Ⅰ:" style="shape=ext;double=1;rounded=1;whiteSpace=wrap;html=1;fillColor=#f5f5f5;fontColor=#333333;strokeColor=#666666;" parent="1" vertex="1">
                    <mxGeometry x="20" y="20" width="230" height="40" as="geometry"/>
                </mxCell>
                <mxCell id="RASjmOdxJzoFBqnvzYFF-26" value="Model Ⅱ :" style="shape=ext;double=1;rounded=1;whiteSpace=wrap;html=1;fillColor=#dae8fc;strokeColor=#6c8ebf;" parent="1" vertex="1">
                    <mxGeometry x="280" y="20" width="230" height="40" as="geometry"/>
                </mxCell>
                <mxCell id="RASjmOdxJzoFBqnvzYFF-27" value="Model Ⅲ :" style="shape=ext;double=1;rounded=1;whiteSpace=wrap;html=1;fillColor=#ffe6cc;strokeColor=#d79b00;" parent="1" vertex="1">
                    <mxGeometry x="530" y="20" width="230" height="40" as="geometry"/>
                </mxCell>
                <mxCell id="RASjmOdxJzoFBqnvzYFF-29" value="" style="rounded=1;whiteSpace=wrap;html=1;" parent="1" vertex="1">
                    <mxGeometry x="280" y="80" width="230" height="220" as="geometry"/>
                </mxCell>
                <mxCell id="RASjmOdxJzoFBqnvzYFF-30" value="" style="rounded=1;whiteSpace=wrap;html=1;" parent="1" vertex="1">
                    <mxGeometry x="530" y="80" width="230" height="220" as="geometry"/>
                </mxCell>
                <mxCell id="RASjmOdxJzoFBqnvzYFF-31" value="" style="rounded=1;whiteSpace=wrap;html=1;" parent="1" vertex="1">
                    <mxGeometry x="20" y="80" width="230" height="220" as="geometry"/>
                </mxCell>
                <mxCell id="RASjmOdxJzoFBqnvzYFF-33" style="edgeStyle=none;rounded=0;orthogonalLoop=1;jettySize=auto;html=1;exitX=0.25;exitY=0;exitDx=0;exitDy=0;" parent="1" source="RASjmOdxJzoFBqnvzYFF-21" target="RASjmOdxJzoFBqnvzYFF-21" edge="1">
                    <mxGeometry relative="1" as="geometry"/>
                </mxCell>
                <mxCell id="5" style="edgeStyle=none;html=1;entryX=0;entryY=0.5;entryDx=0;entryDy=0;" edge="1" parent="1" source="3" target="4">
                    <mxGeometry relative="1" as="geometry"/>
                </mxCell>
                <mxCell id="3" value="Read data" style="rounded=1;whiteSpace=wrap;html=1;fillColor=#dae8fc;strokeColor=#6c8ebf;" vertex="1" parent="1">
                    <mxGeometry x="45" y="130" width="60" height="30" as="geometry"/>
                </mxCell>
                <mxCell id="7" value="" style="edgeStyle=none;html=1;" edge="1" parent="1" source="4" target="6">
                    <mxGeometry relative="1" as="geometry"/>
                </mxCell>
                <mxCell id="4" value="Construct DM" style="rounded=1;whiteSpace=wrap;html=1;fillColor=#fff2cc;strokeColor=#d6b656;" vertex="1" parent="1">
                    <mxGeometry x="160" y="130" width="60" height="30" as="geometry"/>
                </mxCell>
                <mxCell id="9" style="edgeStyle=none;html=1;entryX=1;entryY=0.5;entryDx=0;entryDy=0;" edge="1" parent="1" source="6" target="8">
                    <mxGeometry relative="1" as="geometry"/>
                </mxCell>
                <mxCell id="6" value="Matrix computing" style="rounded=1;whiteSpace=wrap;html=1;fillColor=#e1d5e7;strokeColor=#9673a6;" vertex="1" parent="1">
                    <mxGeometry x="160" y="195" width="60" height="30" as="geometry"/>
                </mxCell>
                <mxCell id="8" value="Select best" style="rounded=1;whiteSpace=wrap;html=1;fillColor=#d5e8d4;strokeColor=#82b366;" vertex="1" parent="1">
                    <mxGeometry x="45" y="192.5" width="60" height="35" as="geometry"/>
                </mxCell>
                <mxCell id="19" value="" style="edgeStyle=none;html=1;" edge="1" parent="1" source="15" target="16">
                    <mxGeometry relative="1" as="geometry"/>
                </mxCell>
                <mxCell id="15" value="Read data" style="rounded=1;whiteSpace=wrap;html=1;fillColor=#dae8fc;strokeColor=#6c8ebf;" vertex="1" parent="1">
                    <mxGeometry x="320" y="130" width="60" height="30" as="geometry"/>
                </mxCell>
                <mxCell id="18" value="" style="edgeStyle=none;html=1;" edge="1" parent="1" source="16" target="17">
                    <mxGeometry relative="1" as="geometry"/>
                </mxCell>
                <mxCell id="16" value="Build KD Tree" style="rounded=1;whiteSpace=wrap;html=1;fillColor=#fff2cc;strokeColor=#d6b656;" vertex="1" parent="1">
                    <mxGeometry x="420" y="130" width="60" height="30" as="geometry"/>
                </mxCell>
                <mxCell id="22" value="" style="edgeStyle=none;html=1;" edge="1" parent="1" source="17" target="21">
                    <mxGeometry relative="1" as="geometry"/>
                </mxCell>
                <mxCell id="17" value="Point query" style="rounded=1;whiteSpace=wrap;html=1;fillColor=#e1d5e7;strokeColor=#9673a6;" vertex="1" parent="1">
                    <mxGeometry x="420" y="197.5" width="60" height="32.5" as="geometry"/>
                </mxCell>
                <mxCell id="21" value="Select best" style="rounded=1;whiteSpace=wrap;html=1;fillColor=#d5e8d4;strokeColor=#82b366;" vertex="1" parent="1">
                    <mxGeometry x="320" y="195" width="60" height="35" as="geometry"/>
                </mxCell>
                <mxCell id="27" value="" style="edgeStyle=none;html=1;" edge="1" parent="1" source="24" target="25">
                    <mxGeometry relative="1" as="geometry"/>
                </mxCell>
                <mxCell id="24" value="Read data" style="rounded=1;whiteSpace=wrap;html=1;fillColor=#dae8fc;strokeColor=#6c8ebf;" vertex="1" parent="1">
                    <mxGeometry x="570" y="130" width="60" height="30" as="geometry"/>
                </mxCell>
                <mxCell id="31" value="" style="edgeStyle=none;html=1;" edge="1" parent="1" source="25" target="30">
                    <mxGeometry relative="1" as="geometry"/>
                </mxCell>
                <mxCell id="25" value="HFBNNA" style="rounded=1;whiteSpace=wrap;html=1;fillColor=#fff2cc;strokeColor=#d6b656;" vertex="1" parent="1">
                    <mxGeometry x="660" y="130" width="60" height="30" as="geometry"/>
                </mxCell>
                <mxCell id="33" value="" style="edgeStyle=none;html=1;" edge="1" parent="1" source="30" target="32">
                    <mxGeometry relative="1" as="geometry"/>
                </mxCell>
                <mxCell id="30" value="KD Tree&amp;nbsp;&lt;br&gt;Select" style="rounded=1;whiteSpace=wrap;html=1;arcSize=21;fillColor=#e1d5e7;strokeColor=#9673a6;" vertex="1" parent="1">
                    <mxGeometry x="660" y="200" width="60" height="33" as="geometry"/>
                </mxCell>
                <mxCell id="32" value="Signal recovery" style="rounded=1;whiteSpace=wrap;html=1;fillColor=#d5e8d4;strokeColor=#82b366;" vertex="1" parent="1">
                    <mxGeometry x="570" y="200" width="60" height="33" as="geometry"/>
                </mxCell>
            </root>
        </mxGraphModel>
    </diagram>
</mxfile>